<svg width="49" height="59" xmlns="http://www.w3.org/2000/svg">
 <title>bookmark</title>

 <g>
  <title>Layer 1</title>
  <g data-name="Layer 2" id="Layer_2">
   <g data-name="Layer 1" id="Layer_1-2">
    <g id="bookmark">
     <path id="svg_1" d="m46.5,59a2.48,2.48 0 0 1 -1,-0.22l-21,-9.53l-21,9.53a2.51,2.51 0 0 1 -3.5,-2.28l0,-46a10.51,10.51 0 0 1 10.5,-10.5l28,0a10.51,10.51 0 0 1 10.5,10.5l0,46a2.49,2.49 0 0 1 -1.15,2.1a2.45,2.45 0 0 1 -1.35,0.4zm-22,-15a2.45,2.45 0 0 1 1,0.22l18.5,8.4l0,-42.12a5.51,5.51 0 0 0 -5.5,-5.5l-28,0a5.51,5.51 0 0 0 -5.5,5.5l0,42.12l18.47,-8.4a2.45,2.45 0 0 1 1.03,-0.22z"/>
    </g>
   </g>
  </g>
  <rect id="svg_4" height="34.97997" width="33.37783" y="9.72957" x="10.49371" stroke="#000" fill="#000000"/>
  <rect id="svg_5" height="5.47396" width="6.54206" y="24.01529" x="20.10652" stroke="#000" fill="#000000"/>
  <rect id="svg_6" height="1.2016" width="2.67023" y="19.60941" x="17.16927" stroke="#000" fill="#000000"/>
  <rect stroke="#000" id="svg_7" height="43.12416" width="40.58745" y="4.65614" x="4.21867" fill="#000000"/>
  <rect id="svg_8" height="9.74633" width="5.60748" y="44.30901" x="39.8662" stroke="#000" fill="#000000"/>
  <rect id="svg_9" height="4.80641" width="8.01068" y="46.71221" x="32.7901" stroke="#000" fill="#000000"/>
  <rect id="svg_10" height="6.14152" width="4.13885" y="46.44519" x="4.08516" stroke="#000" fill="#000000"/>
  <rect id="svg_11" height="7.0761" width="8.2777" y="43.90847" x="6.48837" stroke="#000" fill="#000000"/>
 </g>
</svg>