<svg width="288" height="288" xmlns="http://www.w3.org/2000/svg" version="1.1">

 <g>
  <title>Layer 1</title>
  <g fill="#c30000" id="svg_26">
   <svg id="svg_1" height="288" width="288" viewBox="0 0 59 57.27" xmlns="http://www.w3.org/2000/svg">
    <g id="svg_2" class="color000 svgShape" fill="#c30000" data-name="Layer 2">
     <path id="svg_3" class="color000 svgShape" fill="#c30000" data-name="Layer 1" d="m29.5,57.27l-1.08,-0.51a65,65 0 0 1 -14.1,-9.76c-9.32,-8.46 -14.32,-18.32 -14.32,-28.5a18.49,18.49 0 0 1 29.5,-14.86a18.49,18.49 0 0 1 29.5,14.86c0,10.18 -5,20 -14.32,28.52a65,65 0 0 1 -14.1,9.74l-1.08,0.51zm-11,-52.27a13.52,13.52 0 0 0 -13.5,13.5c0,18.7 19.63,30.5 24.5,33.18c4.86,-2.68 24.5,-14.48 24.5,-33.18a13.49,13.49 0 0 0 -22.78,-9.79l-1.72,1.64l-1.72,-1.64a13.46,13.46 0 0 0 -9.28,-3.71z"/>
    </g>
   </svg>
  </g>
  <path d="m50.89127,112.36757c0.34483,0 0.37107,0.21287 0.68966,0.34483c0.45053,0.18661 0.92877,0.50304 1.37931,0.68965c0.63716,0.26392 1.72414,0 2.75862,0c1.03448,0 2.16866,0.32803 3.7931,-0.34483c1.14865,-0.47578 2.74615,-0.72961 3.7931,-1.03448c1.36506,-0.39751 2.37191,-0.85981 3.44828,-1.03448c1.02113,-0.1657 2.39108,-0.39458 3.10345,-0.68966c1.00744,-0.4173 1.66337,-0.5125 2.4138,-0.68965c0.3356,-0.07922 0.68966,0 0.68966,0.34483c0,0.34483 0,1.03448 0,2.06896c0,1.37931 0,3.44828 0,4.82759c0,2.4138 -0.45233,4.44997 -1.03448,6.55173c-0.84862,3.0638 -0.96504,5.18776 -1.37931,6.89655c-0.59148,2.43971 -0.86123,3.42268 -1.03448,5.17242c-0.10194,1.02943 0.0515,1.21576 0.34483,1.03447c0.6559,-0.40536 1.63091,-1.80305 3.10345,-3.44827c1.62615,-1.81685 3.70438,-4.20674 5.86207,-6.89655c1.98928,-2.47987 4.13793,-4.48276 6.55172,-6.89655c2.4138,-2.4138 4.82241,-4.92502 6.89655,-6.2069c1.85517,-1.14655 3.76131,-1.89525 5.17242,-2.06896c1.02673,-0.1264 1.96325,-0.15821 2.4138,-0.34483c0.31858,-0.13196 0.34483,0.34483 0.34483,0.68965c0,0.34483 0,1.03448 0,2.06896c0,0.68966 0,1.72414 0,2.4138c0,1.03448 0.52783,1.82912 0,3.10345c-0.18661,0.45055 -0.51498,1.33743 -0.68966,2.4138c-0.22095,1.3615 -0.34483,1.72414 -0.34483,2.75862c0,1.03448 -0.2656,2.07819 -0.34483,2.4138c-0.17715,0.75043 -0.68966,1.37931 -0.68966,1.72413l0,0.34483" id="svg_23" fill="none"/>
  <path d="m88.13265,95.81584c0,-0.34483 0,-0.68965 -0.34483,-0.68965c0,0 -0.37107,0.13196 -0.68965,0c-0.45055,-0.18662 -1.03448,-0.34483 -2.06897,-0.34483c-1.03448,0 -1.79273,0.18358 -2.75862,0.68966c-1.52721,0.80018 -2.47258,2.35817 -3.44827,3.44827c-1.47254,1.64523 -2.17594,3.00655 -3.10345,4.13793c-0.78823,0.96149 -1.72414,2.06897 -2.41379,2.4138c0,0 -0.34483,0.34482 -0.68966,0.68965c-0.34483,0.34483 -0.58394,0.50304 -1.03448,0.68966c-0.31859,0.13197 -0.68966,0.34483 -1.03448,0.34483c-0.34483,0 -0.68966,0 -0.68966,-0.34483c0,-0.34483 0.11638,-0.45172 0.68966,-1.37931c0.25638,-0.41483 1.17789,-1.29693 1.72414,-2.4138c0.47909,-0.97956 0.88603,-1.77 1.37931,-3.10345c0.53503,-1.44633 1.14896,-2.49289 1.72414,-3.79311c0.50298,-1.13701 1.03448,-1.72414 1.37931,-2.75862l0,-0.34483l0,-0.68965" id="svg_25" fill="none"/>
  <path stroke="#c30000" d="m78.51634,132.65826c0,-0.60448 0.58801,-0.60448 1.17602,-1.81342c0.58801,-1.20895 0.76265,-2.78894 2.35204,-4.23131c0.9857,-0.89451 1.88851,-1.64062 3.52807,-3.02236c1.28618,-1.08394 1.40351,-2.36809 2.94006,-3.02236c0.54325,-0.23132 1.34824,-1.03191 1.76403,-0.60448c0.4158,0.42744 0,1.20895 0,2.41789c0,2.41789 0.23176,3.63861 0,6.04474c-0.29545,3.06722 -0.96021,4.95547 -2.94005,8.46261c-1.06414,1.88504 -3.52807,4.83578 -5.88011,6.6492c-2.35204,1.81342 -5.2921,3.62684 -7.05613,4.23131c-1.76404,0.60448 -4.11608,1.20894 -5.2921,1.20894c-1.76403,0 -3.02957,0.46264 -4.11607,0c-0.76827,-0.32713 -1.08183,-1.21675 -1.17602,-1.81342c-0.29785,-1.88682 -0.58801,-3.02236 -0.58801,-6.04472c0,-3.02236 0,-7.85814 0,-12.69393c0,-4.83578 0,-9.67157 1.17602,-14.50735c1.17602,-4.83578 2.35204,-9.67157 4.11607,-13.2984c1.76404,-3.62684 3.7545,-7.47855 5.2921,-9.67157c0.97246,-1.38699 1.59181,-2.24085 1.17602,-1.81342c-0.83158,0.85486 -0.95464,1.9622 -2.94005,4.83578c-2.65936,3.84901 -4.24433,5.95358 -7.05613,10.27603c-3.08364,4.74033 -5.58557,9.85117 -8.82016,15.11182c-2.70261,4.39544 -5.69933,8.57506 -6.46812,9.67157c-0.48622,0.69349 0.68882,4.29088 -8.23215,7.85814c-0.54801,0.21913 -0.87539,-0.62259 -0.58801,-3.02236c0.29622,-2.47363 1.76403,-7.25367 2.94005,-12.08946c1.17602,-4.83578 1.87628,-11.45758 2.94006,-16.32076c1.31557,-6.01427 2.60282,-11.43405 3.52807,-16.92524c0.8091,-4.80191 1.17602,-9.67157 2.35204,-12.08946c0.58801,-1.20895 0.58801,-0.60448 0.58801,0.60447c0,1.81342 -1.13478,6.65469 -1.76403,11.48499c-0.55189,4.23645 -1.49279,9.00483 -2.35204,14.50735c-0.93663,5.99809 -1.48987,10.9389 -2.35204,14.50735c-0.89645,3.71028 -1.42325,7.91002 -1.76404,9.06708c-0.61437,2.08595 -1.24256,2.41401 -1.17602,1.81342c0.88772,-8.01287 2.46743,-10.23792 4.11608,-15.71629c1.26517,-4.20406 2.13636,-9.22389 3.52807,-14.50735c1.51365,-5.74641 3.36952,-10.09084 5.88011,-13.90288c2.33102,-3.53938 5.88011,-6.04473 7.05613,-6.6492c2.35204,-1.20894 4.11607,-1.81342 4.70408,-1.81342c0.58801,0 0.42722,1.76647 0,3.62684c-0.95528,4.15993 -2.96489,7.84366 -5.2921,12.08946c-2.97188,5.42194 -5.36669,10.64909 -8.82016,15.11182c-3.10618,4.01394 -6.19273,7.5662 -9.40818,10.27603c-1.63957,1.38176 -2.94006,1.81342 -3.52807,1.81342c-0.58801,0 -0.58801,-1.81342 -0.58801,-4.23131c0,-3.62683 0,-7.85814 0,-12.69393c0,-5.44025 0.26285,-10.88976 0.58801,-16.92523c0.29445,-5.46536 0.89355,-11.53021 1.76403,-16.32076c0.89034,-4.89986 2.00604,-9.31131 4.11608,-12.08946c2.04704,-2.6952 4.16219,-4.10428 5.88011,-4.83578c2.42949,-1.0345 3.52807,-1.20895 4.70409,-1.20895c0.58801,0 0.58801,0.60447 0.58801,1.20895c0,1.20895 -0.38946,3.66682 -1.17602,7.25367c-0.9414,4.29289 -3.18696,8.94671 -5.88011,15.11182c-1.29719,2.96951 -3.52807,7.85814 -5.2921,11.48498c-1.76404,3.62684 -3.1385,6.83658 -4.11608,8.46262c-0.87437,1.45437 -1.31112,1.79725 -1.17602,1.20895c0.30209,-1.31549 2.23613,-3.70162 4.11608,-6.6492c2.77347,-4.34854 5.42178,-7.75616 7.64414,-10.88051c3.75419,-5.2779 5.72474,-9.2094 9.40818,-13.2984c0.56501,-0.62723 0.56034,-1.84327 1.17602,-2.41789c9.5876,-8.94829 10.16842,-8.63967 10.5842,-9.06709c0.41578,-0.42742 1.40105,-0.55846 1.17602,0c-0.31823,0.78978 -1.11635,2.46514 -2.94006,4.83578c-2.84872,3.70306 -5.9951,7.74438 -8.82016,10.88051c-3.68342,4.08901 -6.87384,9.26317 -11.17221,13.2984c-3.39122,3.18361 -6.7407,6.48302 -10.5842,9.0671c-2.20078,1.47963 -2.7598,2.74504 -3.52807,2.41789c-0.54325,-0.23132 0.81676,-1.60544 2.35204,-3.62684c2.11004,-2.77815 4.29067,-7.11844 6.46812,-10.27604c3.20811,-4.65222 6.20889,-8.83117 9.40818,-13.90287c3.29387,-5.22164 6.57282,-9.57947 10.5842,-14.50735c2.41628,-2.96833 5.53372,-5.85878 8.23215,-7.85814c1.06665,-0.79032 1.94997,-0.57345 1.76403,0c-0.92973,2.86727 -2.3977,5.77756 -4.70409,9.06709c-2.43114,3.46746 -5.88011,7.85815 -9.99618,12.69393c-4.11607,4.83578 -7.244,8.25157 -11.76022,12.69393c-2.72037,2.67587 -6.12242,5.42124 -8.23215,6.6492c-0.72364,0.42118 0.2463,0.95576 1.17602,0c1.85945,-1.91151 3.99046,-4.94377 6.46812,-7.85814c2.25626,-2.65394 5.14082,-6.76985 8.82016,-11.48498c3.39219,-4.34715 6.72631,-8.16993 9.99618,-11.48499c3.85989,-3.91322 6.36891,-6.78251 9.40818,-9.06709c1.71139,-1.28644 1.98906,-1.7674 1.76404,-1.20895c-0.63646,1.57956 -3.27307,3.93177 -5.2921,6.6492c-2.87757,3.87294 -5.88011,8.46262 -9.40818,12.69393c-3.52806,4.23131 -7.64413,9.67156 -10.58419,12.69393c-2.94006,3.02237 -5.88011,4.83578 -5.2921,5.44025c0.58801,0.60448 1.17602,-1.20895 2.94006,-3.62684c1.76403,-2.41789 3.77007,-5.68446 5.88011,-8.46261c2.04704,-2.6952 4.9199,-7.04702 7.64414,-10.27604c3.85266,-4.56652 5.72202,-8.63438 8.82016,-11.48498c2.80549,-2.58133 5.18847,-5.12971 6.46812,-5.44025c0.57228,-0.13888 0.48924,-0.04815 -0.58801,2.41789c-1.29719,2.96951 -2.94005,5.44025 -5.2921,9.06709c-2.35204,3.62684 -5.02154,8.0111 -7.05613,11.48498c-2.60909,4.45476 -4.94609,7.49789 -7.05613,10.27603c-2.5588,3.369 -4.11607,3.02237 -4.11607,3.62684c0,0.60447 1.17602,-0.60447 3.52807,-3.02236c1.76403,-1.81342 6.01695,-5.88348 9.40817,-9.06709c4.29837,-4.03523 8.11948,-7.39335 12.34823,-10.88051c4.58673,-3.78235 8.84541,-6.60433 12.93624,-9.0671c2.95864,-1.78116 5.11183,-3.95397 5.8801,-3.62683c0.54325,0.23132 -0.98754,2.7631 -2.35204,5.44025c-2.58895,5.07953 -4.62704,9.7198 -8.23215,15.71629c-4.03063,6.70429 -8.82016,13.2984 -13.52425,19.9476c-4.70409,6.6492 -9.07468,11.87853 -12.34823,16.32076c-2.56042,3.47451 -4.4343,6.46389 -4.11607,7.25367c0.22502,0.55846 1.76403,0 3.52807,-1.20894c3.52807,-2.41788 7.49231,-5.63071 11.76021,-9.0671c3.98218,-3.20634 9.25543,-7.39878 14.70027,-13.2984c5.15115,-5.5814 10.85423,-11.76166 15.87629,-17.52971c4.99136,-5.73278 10.20705,-9.34966 14.70027,-12.69393c3.71988,-2.76868 4.87631,-4.05427 5.29211,-3.62684c0.41578,0.42743 -0.12489,1.75338 -1.17603,4.23131c-2.00818,4.73409 -3.14805,9.24757 -7.64414,18.73865c-3.80112,8.02406 -8.71949,17.58518 -14.11226,27.80575c-5.77292,10.941 -10.52364,21.46584 -17.05232,35.05942c-5.36022,11.16069 -11.64143,21.21453 -15.87629,30.22364c-2.86035,6.08502 -4.10035,9.20597 -3.52807,9.0671c1.27967,-0.31055 3.37676,-3.92514 6.46812,-9.0671c4.14749,-6.89866 7.72076,-15.68042 11.17221,-23.57443c4.20994,-9.62877 7.64413,-21.15655 11.76021,-32.64154c4.11608,-11.48497 7.38492,-22.50338 12.34823,-32.03705c4.47387,-8.59353 7.6494,-14.58753 12.93625,-18.73865c3.76745,-2.95813 7.05613,-3.62684 8.82016,-3.62684c0.58802,0 1.29191,0.61035 1.17603,1.81342c-0.29544,3.06722 -2.06209,9.1757 -4.11608,14.50735c-3.09994,8.04668 -6.9584,17.5806 -11.76022,27.20127c-5.76343,11.54732 -11.76022,22.36549 -17.64032,33.85048c-5.8801,11.48497 -11.78159,22.01793 -16.46431,31.43257c-4.07739,8.19762 -6.76068,14.46249 -7.05613,17.52971c-0.05794,0.60154 0.61145,0.65042 1.76404,0c3.00558,-1.6961 7.11234,-5.99894 11.76022,-12.08944c5.95263,-7.80023 11.04997,-16.66105 17.05232,-28.41023c5.74788,-11.2511 10.81551,-22.84121 16.46431,-33.85048c5.52077,-10.75975 9.15568,-19.98288 15.87629,-28.41021c2.10884,-2.64438 6.39671,-5.73854 8.23216,-6.04473c1.74124,-0.29047 2.62183,0.41916 2.94005,1.20895c1.35013,3.35076 0.63735,8.49498 0,15.11182c-0.88634,9.20167 -3.52807,18.73866 -7.05613,30.22364c-3.52806,11.48499 -7.89809,23.11788 -14.11226,37.47731c-5.02482,11.61116 -10.45722,23.04015 -15.87629,33.24601c-5.17177,9.74012 -9.30111,15.44593 -12.34824,21.76102c-1.40708,2.91614 -1.17602,3.62684 -1.17602,3.62684c0.58801,-0.60448 2.81444,-1.92143 5.2921,-4.83578c4.51254,-5.30792 7.64414,-12.08947 12.93624,-21.76104c5.29211,-9.67157 10.82528,-20.4313 16.46431,-32.64153c5.53085,-11.97599 10.46557,-23.63271 15.28829,-33.85048c4.01779,-8.51238 7.9444,-15.87588 10.58419,-20.55207c2.12827,-3.77007 3.24191,-4.79529 2.94005,-3.62683c-1.21679,4.71015 -5.63292,10.07092 -9.99618,18.13418c-4.47422,8.26829 -10.5114,18.78626 -17.64032,30.22364c-7.56719,12.14051 -15.42211,23.34977 -24.10845,33.85048c-7.2775,8.79758 -13.81187,15.62439 -19.40437,18.73865c-3.93755,2.19268 -6.01989,1.25068 -6.46812,-0.60447c-0.86218,-3.56844 -0.49662,-8.45474 0,-15.11182c0.72079,-9.66207 1.51174,-20.5782 2.94006,-33.85048c1.4997,-13.93562 3.35781,-27.83732 5.8801,-41.70861c2.20366,-12.11897 4.44814,-23.85361 8.23215,-34.45495c2.90014,-8.12503 7.61839,-14.53846 11.76022,-18.13418c2.61953,-2.27413 6.55765,-2.88053 7.64414,-2.41789c1.53656,0.65427 1.37153,3.63102 1.17603,8.46262c-0.29427,7.27253 -2.76212,15.1674 -5.88012,25.38785c-3.33858,10.94351 -7.53712,23.61998 -12.93624,36.87284c-5.18959,12.73857 -11.20873,25.68834 -17.64033,37.47731c-5.42699,9.94754 -11.28511,18.63619 -16.46431,24.78338c-3.00669,3.56864 -4.38585,4.41662 -4.70408,3.62684c-0.45004,-1.11693 -0.26362,-3.02913 0,-8.46263c0.29437,-6.06732 0.96736,-15.12586 1.76403,-25.99232c0.93222,-12.7153 2.08947,-26.11199 4.11607,-38.08179c1.66289,-9.82157 4.03169,-19.85493 9.40818,-26.59679c5.27209,-6.61095 12.20302,-10.62871 18.81635,-13.29841c6.92315,-2.79477 14.12136,-3.32284 18.81635,-3.02236c4.73154,0.30282 9.23358,2.67956 10.58419,4.83578c2.71991,4.34228 2.72538,10.31503 1.76404,18.13418c-1.2728,10.35245 -4.44896,21.87501 -9.40818,33.24601c-5.59521,12.82929 -11.72395,24.6454 -19.99237,35.66389c-7.12907,9.50019 -12.92429,16.77469 -19.40437,19.9476c-3.86477,1.89236 -7.47359,2.9203 -10.5842,1.20895c-1.86924,-1.0284 -3.97235,-4.64139 -5.2921,-8.46263c-1.81381,-5.25178 -2.05785,-12.07329 -2.35204,-20.55207c-0.31441,-9.06133 -0.29367,-19.95179 0,-30.82812c0.29412,-10.89309 2.21461,-20.67204 6.46812,-27.20127c4.16448,-6.39258 11.15045,-9.74788 17.05232,-11.48497c6.44538,-1.89707 11.80569,-2.48415 16.46431,-1.81342c4.2394,0.61037 8.1532,2.4871 11.1722,6.04474c3.64663,4.29726 5.64119,10.82975 6.46812,18.13418c1.02187,9.02629 1.14349,17.68105 -1.76404,27.80574c-2.47496,8.61842 -6.94461,17.39562 -11.76022,24.17891c-4.6635,6.56903 -9.9566,10.37409 -14.11226,12.08946c-4.66216,1.92444 -8.29823,2.0872 -11.17221,1.20894c-3.03526,-0.92755 -6.46812,-4.83578 -8.82017,-9.06708c-2.35204,-4.23131 -4.71843,-10.65252 -7.05613,-18.13419c-2.39914,-7.6783 -2.94005,-16.32076 -2.94005,-23.57443c0,-7.25367 1.2718,-13.72304 5.2921,-18.13419c3.70653,-4.06689 10.24329,-7.58554 17.05232,-9.67157c7.41193,-2.27074 13.52815,-2.0548 20.58038,-1.81341c8.83484,0.3024 15.50094,1.4497 20.58038,4.83578c4.93358,3.28885 9.13185,9.42638 10.5842,16.92524c1.61156,8.32086 0.65372,18.3562 -2.94005,28.41021c-3.99485,11.1761 -10.46481,20.65884 -17.64034,29.0147c-5.78508,6.7367 -12.74582,12.04776 -18.81635,13.90287c-5.74796,1.75654 -10.69683,1.75853 -14.70027,0.60448c-4.31185,-1.24296 -7.4873,-3.76753 -10.5842,-7.25367c-2.80381,-3.15622 -6.44745,-8.30186 -7.64414,-13.90288c-1.14227,-5.3463 -0.87676,-12.12034 0,-19.34313c0.88578,-7.29714 3.07659,-15.21358 7.64414,-21.15654c4.90426,-6.38105 11.55428,-9.08446 19.40436,-11.48499c8.06956,-2.46766 17.64481,-2.67645 24.69646,-2.41789c8.24789,0.30243 16.87977,2.07225 22.93243,5.44025c5.17114,2.87748 8.51462,7.63791 9.40818,13.29841c0.94189,5.96667 -1.74794,13.66593 -6.46812,21.15654c-5.24332,8.32081 -12.35178,15.8224 -20.58039,22.36549c-7.74093,6.15531 -16.90334,10.79631 -24.10845,12.69393c-6.36848,1.67726 -11.91274,2.03515 -17.05231,0.60448c-5.58993,-1.55602 -10.77659,-5.2842 -13.52426,-9.0671c-2.53689,-3.4927 -4.85786,-9.63477 -5.8801,-14.50735c-1.38598,-6.60631 -1.11594,-15.09781 0.58801,-22.96996c1.82862,-8.44813 4.44567,-17.13422 9.99618,-22.36549c6.25091,-5.89137 15.21144,-9.40851 24.69646,-11.48499c9.92801,-2.17347 22.93632,-3.26375 29.98855,-3.02236c8.83486,0.3024 17.28478,1.88992 22.93243,4.83578c4.9469,2.58035 8.47343,6.5279 8.82017,12.08946c0.41541,6.66294 -1.6259,12.7831 -6.46812,20.55207c-4.57508,7.34035 -11.23851,15.23398 -20.58039,21.76102c-7.84166,5.47886 -14.50542,9.32617 -22.93242,10.8805c-7.54621,1.39188 -13.62563,1.27058 -19.40436,0c-5.45499,-1.1994 -10.26527,-3.58395 -13.52426,-9.06708c-1.26406,-2.12674 -6.14892,-22.37124 -5.88011,-29.0147c0.29426,-7.27253 2.13646,-15.51423 5.88011,-22.36549c3.91687,-7.16825 9.66666,-12.07154 16.46431,-15.7163c6.77763,-3.63403 15.86161,-5.13784 24.69646,-5.44025c9.99064,-0.34198 19.0331,0.9288 27.63652,3.62684c7.3115,2.2929 12.84773,5.59542 15.87629,9.67157c2.87757,3.87293 3.12213,10.48999 1.17603,16.32076c-2.56027,7.67089 -7.94654,14.81597 -14.11226,20.55208c-6.19647,5.76472 -12.66493,9.33242 -18.81635,10.8805c-5.73994,1.44452 -10.10514,0.98685 -14.70027,-0.60447c-4.24382,-1.46967 -7.67863,-3.15994 -8.82017,-5.44027c-1.63664,-3.26934 -0.53507,-7.24788 0,-12.69393c0.65265,-6.64281 3.54643,-15.355 6.46812,-21.76101c3.4678,-7.60338 7.80028,-13.72966 13.52426,-19.34313c6.0469,-5.93018 13.89047,-10.29079 21.16838,-12.69393c7.46921,-2.46631 14.70753,-3.35106 21.7564,-3.02236c6.48812,0.30254 11.98231,2.05619 15.8763,4.83578c3.77228,2.69271 5.28857,6.54976 5.8801,12.08945c0.64162,6.00864 -2.08385,12.83845 -5.8801,19.9476c-3.29981,6.17947 -8.63007,13.01279 -15.28828,18.13419c-5.89919,4.53757 -12.74777,7.28912 -17.64034,8.46261c-5.75486,1.38031 -10.13379,0.91098 -12.93624,-0.60447c-3.75268,-2.02928 -7.39339,-4.6557 -9.40818,-9.0671c-2.13517,-4.67499 -4.11369,-10.19433 -4.70409,-16.92524c-0.63369,-7.22436 -1.22807,-14.58591 0,-22.36549c1.16505,-7.38037 3.86126,-13.98883 8.23216,-18.73865c4.04091,-4.39121 11.0726,-7.03431 17.05232,-8.46261c6.96785,-1.66433 14.77089,-1.79329 21.7564,-0.60448c7.17563,1.22117 13.7305,3.71305 19.99237,6.6492c5.50802,2.58268 10.60687,6.10323 14.11225,10.88051c3.64568,4.96847 5.58574,10.25343 5.88013,16.32077c0.26363,5.4335 -0.08373,11.26435 -4.11609,16.32076c-3.16325,3.96657 -8.07576,7.23244 -13.52424,8.46263c-5.2007,1.17425 -10.59499,1.0056 -17.64032,0.60447c-5.31653,-0.3027 -10.52053,-3.14069 -14.70027,-5.44025c-3.47776,-1.91335 -7.38913,-5.14071 -9.40818,-7.85814c-2.87758,-3.87294 -3.82134,-7.82595 -4.11608,-12.08946c-0.2501,-3.61772 0.01207,-9.37334 2.35204,-13.2984c2.39973,-4.02529 6.804,-7.25817 11.76022,-9.0671c5.10876,-1.8646 12.32988,-2.11539 19.40436,-2.41789c6.46253,-0.27634 14.26413,0.44541 21.7564,2.41789c6.66733,1.75529 11.85214,5.31758 16.4643,9.0671c3.60223,2.92847 6.4624,8.33583 7.05615,12.69392c0.89714,6.58494 -1.44813,12.65164 -5.29211,18.13419c-3.88983,5.54795 -9.76514,9.59806 -15.8763,12.08946c-5.70663,2.32648 -12.93624,2.41789 -19.40435,2.41789c-6.46812,0 -11.73939,-0.05189 -18.81635,-3.02237c-2.93157,-1.2305 -8.82017,-4.2313 -11.17221,-7.25367c-2.35204,-3.02236 -3.52806,-6.64919 -3.52806,-10.27603c0,-4.83578 0.66242,-9.91053 3.52806,-15.71629c2.51009,-5.0854 8.04697,-8.83141 12.34823,-10.88051c6.24455,-2.97487 13.50732,-3.92885 21.1684,-4.23131c8.81368,-0.34796 15.90556,0.4975 22.34441,2.41789c7.68106,2.29088 13.47559,4.78575 17.05232,8.46261c3.57673,3.67686 5.8054,9.09597 5.29211,13.90288c-0.59153,5.53969 -3.46903,11.38831 -7.64414,16.32076c-4.64794,5.49103 -10.97857,10.10768 -17.05232,12.69394c-6.87164,2.92603 -13.4513,4.22924 -20.58039,4.83578c-7.03209,0.59829 -13.65641,-0.05689 -19.40436,-1.81342c-6.07052,-1.85511 -11.52042,-5.06021 -15.28828,-9.0671c-2.61685,-2.78284 -5.27144,-7.69737 -6.46812,-13.2984c-1.14227,-5.3463 -1.05812,-11.60209 0.58801,-17.52971c1.37914,-4.96621 4.59141,-10.41572 8.82017,-13.90288c4.58674,-3.78235 11.17969,-5.99564 18.81635,-7.25367c7.06334,-1.16359 15.87089,-1.16939 24.10845,0c8.81456,1.2513 16.54985,3.39744 22.93242,6.04473c5.37058,2.22755 10.85813,6.49719 12.34823,9.67157c2.18342,4.65137 2.95467,9.82925 1.17602,15.71629c-1.32828,4.39635 -4.74624,10.29767 -10.58419,15.11182c-5.98038,4.93158 -13.52424,7.85814 -21.16838,9.67157c-7.64415,1.81342 -15.89684,2.36652 -22.93243,1.81342c-7.71156,-0.60623 -14.94821,-2.36148 -21.7564,-5.44027c-5.54146,-2.50595 -10.18799,-5.88339 -13.52426,-10.27603c-3.23665,-4.26149 -3.8215,-9.03886 -4.11607,-13.90287c-0.29229,-4.82643 0.57971,-9.35 3.52806,-15.11182c2.96104,-5.78661 7.43229,-9.4473 12.34823,-12.08946c7.93698,-4.26588 15.86696,-5.56931 22.93243,-6.04473c12.33582,-0.83005 21.83099,-0.75298 31.16458,0.60448c10.73547,1.56134 19.65906,4.78871 27.63651,8.46262c6.72385,3.09658 11.66159,6.85601 15.28828,12.08946c2.7506,3.96922 3.95703,9.05296 3.52807,15.11182c-0.52797,7.45719 -4.08677,12.66377 -9.9962,18.73865c-5.90943,6.07487 -14.11224,9.67157 -22.93242,12.08946c-8.82016,2.41789 -17.07248,3.72986 -28.81254,3.02237c-10.04787,-0.60551 -19.02182,-2.37812 -27.0485,-5.44027c-7.89305,-3.01117 -14.48928,-6.78757 -18.81635,-10.8805c-5.21048,-4.92855 -9.07376,-9.13887 -10.58419,-15.71629c-0.54039,-2.35321 -0.60434,-2.41801 -0.58801,-3.62684c0.29404,-21.76731 3.63258,-27.22189 9.40818,-31.43258c4.93816,-3.60016 12.93517,-4.8535 22.34441,-5.44026c9.99509,-0.62329 21.1684,0.60448 32.3406,2.41789c11.17221,1.81342 23.63305,5.06671 31.7526,7.85815c7.76719,2.6703 16.57743,6.16677 22.3444,10.88051c5.54221,4.53002 8.51463,10.66027 9.40818,16.32076c0.8477,5.37001 -1.40595,11.74927 -5.29208,16.92524c-4.32623,5.76214 -10.023,10.86943 -17.64034,13.90288c-7.85058,3.12633 -17.04009,3.92895 -27.63651,4.23131c-9.40456,0.26835 -20.0336,-0.98336 -29.98857,-3.02237c-10.63337,-2.17797 -18.00657,-4.61293 -26.46049,-9.06708c-6.8228,-3.59476 -12.9563,-7.9656 -17.05232,-13.90288c-3.50212,-5.0764 -4.99273,-12.06656 -4.70409,-18.13418c0.29289,-6.15709 1.92241,-11.91032 6.46812,-16.32077c4.87568,-4.73059 11.04581,-7.88959 18.22835,-9.06709c8.15013,-1.33613 17.64337,-1.42201 24.69646,-1.20895c10.00914,0.30237 18.28567,0.24642 26.46048,1.81342c7.7121,1.4783 13.96177,3.48792 18.22836,6.6492c2.69841,1.99936 4.45557,5.45467 4.11607,9.67157c-0.29501,3.66434 -2.81979,8.6054 -8.23216,13.2984c-5.75607,4.991 -12.36938,8.98694 -21.16838,11.48497c-8.25265,2.34292 -17.62461,3.92888 -25.87249,4.23131c-8.81456,0.32321 -17.71888,-0.23928 -26.46049,-2.41789c-8.32054,-2.07368 -15.49468,-5.68024 -21.7564,-9.67157c-6.10009,-3.88829 -10.90258,-8.2027 -14.11226,-12.69393c-3.28432,-4.59568 -5.28972,-10.19433 -5.8801,-16.92524c-0.42246,-4.81624 0.39106,-11.92092 3.52806,-16.92523c3.83541,-6.11847 8.57523,-8.44642 13.52426,-10.27604c7.38219,-2.72914 15.87629,-2.41789 24.10845,-2.41789c9.40818,0 19.33843,2.70728 28.81254,4.83578c9.3514,2.10093 17.88448,4.88872 23.52043,7.85815c6.8228,3.59476 10.54043,7.02434 11.76023,10.8805c1.10607,3.49663 0.72314,8.91236 -2.35206,13.2984c-2.43116,3.46746 -7.77689,8.18287 -14.11225,10.88052c-6.71964,2.86128 -14.68333,3.92884 -22.34443,4.2313c-7.63851,0.30157 -15.93871,-0.8476 -23.52043,-2.41789c-9.5067,-1.96899 -16.72232,-5.51862 -22.93243,-9.06709c-5.55924,-3.17655 -11.01054,-6.92941 -13.52426,-10.88051c-2.8787,-4.52478 -3.8215,-8.4344 -4.11607,-13.2984c-0.25576,-4.22313 0.52978,-9.61172 3.52806,-12.69393c2.99828,-3.08222 8.17781,-4.55547 14.11226,-5.44025c6.42755,-0.9583 13.52426,-1.20895 21.1684,-1.20895c8.23215,0 15.29387,0.56211 24.10845,1.81342c8.23755,1.16939 14.23447,4.18941 18.81635,5.44026c0.56831,0.15515 6.5979,7.97349 5.8801,10.27603c-1.54366,4.95182 -7.51308,8.69727 -13.52426,12.08946c-8.06812,4.55295 -16.37155,7.26459 -25.87247,8.46262c-9.93897,1.25326 -18.83908,1.96016 -30.57657,1.20895c-9.46307,-0.60565 -17.80658,-2.52425 -25.28446,-5.44026c-6.64308,-2.59048 -11.53704,-5.705 -14.70028,-9.67156c-2.68825,-3.37093 -3.75569,-8.46909 -3.52807,-12.69393c0.29445,-5.46536 1.97322,-10.52374 4.70409,-14.50734c3.12287,-4.55543 8.09963,-7.10461 15.28828,-9.0671c5.79568,-1.58221 14.11566,-2.06499 22.93243,-1.81342c10.59643,0.30235 20.52564,2.64041 31.75259,5.44025c10.53676,2.62772 20.08689,5.20621 28.81254,9.06709c7.73311,3.42171 12.59451,6.8043 13.52424,9.67157c0.74378,2.29381 -0.75679,5.83395 -2.94005,7.85815c-5.09223,4.72119 -11.02279,6.6673 -19.40436,8.46261c-8.71112,1.8659 -17.03936,2.72 -27.0485,3.02237c-9.40412,0.28409 -20.03261,-0.31014 -29.40054,-1.81342c-9.45759,-1.51767 -17.47153,-3.72755 -24.69646,-7.25367c-5.74567,-2.80417 -10.88822,-7.57504 -13.52426,-10.88051c-2.68825,-3.37093 -2.58381,-6.66097 -2.35204,-9.0671c0.29545,-3.06722 4.37063,-7.0742 6.46812,-8.46261c4.22403,-2.79605 9.3088,-3.96838 14.70028,-5.44026c5.79567,-1.58221 12.32988,-1.51092 19.40436,-1.81342c6.46253,-0.27633 13.00194,0.27878 19.40436,1.81342c4.16895,0.99929 7.86548,2.46644 8.82017,4.83578c0.67507,1.67538 -0.43117,4.372 -3.52807,7.85815c-3.36456,3.78745 -8.63142,8.81429 -15.87629,12.69393c-7.46671,3.99844 -15.07095,8.15999 -22.93243,9.67157c-8.11244,1.55983 -14.67587,1.84078 -21.7564,1.81342c-6.49474,-0.0251 -11.85915,-1.56244 -16.46431,-3.62684c-2.41045,-1.08055 -5.27594,-3.41376 -5.88011,-6.04473c-0.67549,-2.94151 0.05037,-6.32712 2.35204,-10.27603c1.93518,-3.32014 5.47548,-8.32846 9.40818,-11.48498c5.40498,-4.33823 12.34823,-6.04473 19.40437,-6.6492c7.05613,-0.60447 15.30496,-0.78347 22.34441,0c8.84653,0.9846 17.46145,2.57675 25.87249,6.6492c5.0185,2.42985 10.57877,5.44514 14.70027,10.27603c2.79588,3.2771 3.58785,7.43009 2.35204,10.88051c-1.18464,3.30758 -5.83739,8.55254 -10.5842,10.88051c-6.41259,3.14491 -14.67912,4.35771 -21.16838,5.44025c-8.20837,1.36933 -17.64034,1.20895 -25.28448,1.20895c-6.46812,0 -12.49762,-0.82041 -15.87629,-2.41789c-3.11499,-1.4728 -4.99001,-3.5203 -5.2921,-4.83578c-0.54039,-2.35321 0.66261,-6.41779 4.11607,-10.88051c3.10618,-4.01394 8.16953,-7.97704 13.52426,-10.88051c6.97783,-3.78355 14.05212,-5.73277 21.7564,-7.25367c7.5953,-1.49938 15.30899,-1.80885 23.52043,-1.20895c4.14741,0.303 10.26591,1.17449 12.34824,3.62684c1.59432,1.87761 0.85133,4.99128 -0.58802,7.25367c-2.5137,3.95109 -6.31698,8.10278 -11.76022,11.48499c-6.30542,3.91792 -12.93624,6.6492 -19.99237,9.06709c-7.05613,2.41789 -13.49411,3.81179 -19.99237,4.83578c-4.68597,0.73841 -8.99921,1.52976 -11.17221,0.60447c-0.76827,-0.32714 -0.58801,-1.20895 -0.58801,-1.81342c0,-0.60448 2.7832,-4.37199 5.8801,-7.85814c3.92533,-4.4187 9.34556,-8.58152 14.70027,-11.48499c6.97783,-3.78356 14.11226,-5.44025 19.99238,-6.04473c5.8801,-0.60447 12.37283,-1.3851 17.05232,-0.60447c2.95957,0.49372 6.44175,2.74984 7.05613,4.83578c0.68159,2.31414 0.43214,6.26412 -1.76404,10.27603c-2.48067,4.53162 -5.48237,10.11377 -11.17221,15.11182c-6.08034,5.34106 -12.8743,9.79082 -19.40436,13.29841c-5.82669,3.12977 -12.2515,5.43663 -17.64032,6.04472c-5.26049,0.59362 -10.02246,0.74871 -13.52426,0c-2.37364,-0.50751 -4.40623,-2.34448 -4.70409,-4.23131c-0.18838,-1.19333 -0.14031,-3.65384 0.58802,-7.25367c0.98737,-4.88017 2.80478,-10.35566 5.8801,-15.71629c2.81795,-4.912 6.63414,-10.33694 11.76022,-13.2984c5.52094,-3.18959 11.71476,-5.09899 17.64032,-6.04473c5.26164,-0.83977 10.19403,-1.43008 14.11226,0c3.23106,1.17928 5.85609,3.28559 7.05613,6.04473c1.22381,2.81378 1.91006,5.49285 1.17603,10.88051c-0.59376,4.35809 -3.66395,10.1602 -7.05613,14.50735c-3.67935,4.71514 -7.60635,9.94163 -12.93625,13.2984c-5.4002,3.40104 -10.47574,4.83122 -15.28828,5.44025c-4.08525,0.51699 -7.87478,0.63815 -11.76022,-1.20894c-1.92432,-0.91479 -5.02772,-2.20099 -6.46812,-4.83578c-1.55136,-2.83774 -1.46901,-4.79828 -1.76402,-8.46262c-0.33949,-4.21689 -0.92958,-10.40877 0.58801,-18.13418c1.10421,-5.62107 3.25637,-10.35265 7.05613,-14.50735c3.46479,-3.78844 8.16383,-5.76752 12.93624,-6.6492c5.24071,-0.96821 9.43901,-1.12147 13.52426,-0.60447c2.40627,0.30452 5.85609,1.47217 7.05613,4.23131c1.22381,2.81378 1.53225,4.92308 0.58801,10.27604c-0.89641,5.08175 -4.24035,10.08594 -9.40818,15.71629c-5.42906,5.91497 -11.45416,10.26934 -19.99237,14.50735c-5.70308,2.83078 -11.69583,4.58174 -17.05232,5.44025c-6.41726,1.02852 -10.66782,0.99075 -14.11226,0c-3.04942,-0.87713 -4.95038,-1.96852 -5.88011,-4.83578c-0.37189,-1.14691 -0.30561,-3.04286 0,-5.44026c2.37215,-18.60878 6.93854,-23.44175 10.5842,-28.41022c3.00462,-4.09483 6.37801,-6.96116 9.99618,-9.06709c2.10973,-1.22796 4.63268,-2.71617 6.46812,-3.02237c0.58041,-0.09683 0.58801,0.60448 0.58801,2.41789c0,1.20895 -1.34618,5.08452 -3.52807,8.46262c-2.99871,4.64275 -6.85296,7.97413 -10.58419,11.48499c-3.99895,3.76276 -6.64079,5.72634 -9.99618,7.85814c-2.50096,1.58895 -5.2921,2.41789 -7.64415,3.02236c0,0 0,-0.60447 0,-1.20895c0,-1.81342 1.10658,-4.87978 2.94006,-7.85814c2.26745,-3.68333 4.30846,-7.70209 7.05613,-11.48498c2.5369,-3.49269 5.46353,-7.25392 9.40818,-9.67157c2.71983,-1.66696 5.38087,-2.07614 6.46811,-3.62684c0.34381,-0.49037 0.16524,0.18751 -1.76403,1.81342c-1.63956,1.38175 -4.67486,4.26772 -8.23215,7.25367c-2.91639,2.44799 -6.85586,5.78198 -10.5842,7.85815c-3.93756,2.19268 -7.12557,3.24928 -11.17221,4.23131c-1.80971,0.43918 -3.89105,1.16294 -4.11608,0.60448c-0.31823,-0.78979 1.17602,-1.81342 2.94006,-5.44026c1.17602,-2.41789 2.86701,-4.89302 6.46812,-9.67157c2.30583,-3.05976 5.83207,-5.50803 8.23215,-7.25367c3.46145,-2.51759 5.34966,-4.33744 6.46812,-3.62684c0.50019,0.31779 -0.82847,1.07376 -2.35204,4.23131c-1.40709,2.91614 -3.92275,8.59113 -5.88011,11.48498c-4.29887,6.35563 -7.90066,9.93734 -11.76021,13.2984c-3.17254,2.76278 -6.34751,5.57337 -8.23215,7.25367c-2.22107,1.98026 -3.52807,1.81342 -3.52807,1.81342c0.58801,-0.60447 1.8509,-3.59263 2.94005,-6.6492c1.27914,-3.58976 1.38828,-7.33964 2.35204,-10.88051c0.85324,-3.13478 2.46393,-6.57758 3.52807,-8.46262c1.3199,-2.3381 1.34825,-3.44979 1.76404,-3.02236c0.41578,0.42742 -0.69876,1.77936 -1.17602,3.62684c-0.76956,2.97896 -1.72828,6.05969 -2.94006,9.06709c-1.71371,4.25311 -2.89156,6.07897 -4.11607,7.85814c-1.6981,2.46728 -2.94006,4.83578 -2.94006,6.04473c0,0 -0.18079,-0.11244 0.58801,-1.20895c1.45869,-2.08048 4.07531,-3.14799 5.2921,-7.85814c0.45277,-1.75266 2.40236,-6.6274 4.11608,-10.88051c1.21178,-3.0074 2.6422,-5.36684 2.94005,-7.25367c0.09419,-0.59667 -0.28592,-0.10654 -0.58801,1.20895c-0.54039,2.35321 -1.21409,5.07626 -2.94006,8.46262c-1.3645,2.67715 -3.32159,5.5586 -4.70409,7.85815c-1.54568,2.57098 -2.75927,4.94821 -3.52807,6.04472c-0.48623,0.69349 0.25451,0.21092 3.52807,-4.23131c1.28021,-1.73725 2.15871,-4.35982 4.11608,-7.25367c2.14943,-3.17781 3.52807,-5.44025 5.2921,-7.25367c1.76403,-1.81342 1.76403,-2.41789 1.76403,-1.81342c0,0.60447 -1.17602,1.81342 -2.35204,4.23131c-1.17602,2.41789 -2.27666,4.8899 -3.52807,6.6492c-2.22236,3.12435 -3.72652,5.02317 -4.70409,6.6492c-0.87437,1.45437 -1.98906,2.37188 -1.76404,1.81342c0.31823,-0.78978 1.73767,-2.74984 2.35204,-4.83578c0.68159,-2.31414 1.26087,-5.40045 1.76404,-6.6492c0.71158,-1.766 1.76403,-3.02236 1.17602,-3.02236c-0.58801,0 -0.40723,0.71691 -1.17602,1.81342c-1.45869,2.08048 -2.18394,3.75479 -3.52807,5.44026c-1.58162,1.98328 -3.52807,3.02236 -4.11608,3.62684c-1.17602,1.20895 -0.63646,0.97509 0,-0.60448c0.45004,-1.11692 0.46444,-1.86083 1.17602,-3.62684c1.00633,-2.49751 3.18461,-3.48242 4.11608,-5.44025c0.81696,-1.71714 2.17179,-3.95397 2.94005,-3.62684c0.54325,0.23132 -0.20357,1.0309 -1.17602,2.41789c-1.53759,2.19302 -2.01584,5.09169 -4.70409,8.46262c-1.58162,1.98328 -3.15628,5.17666 -5.2921,7.25367c-1.54016,1.49776 -3.52807,4.23132 -4.70409,5.44026c-0.58801,0.60447 -0.47702,0.95791 0,0.60447c1.50846,-1.11768 1.2778,-2.93334 1.76403,-3.62684c1.53759,-2.19303 2.35204,-5.44025 4.11608,-9.06709c1.76403,-3.62684 3.33473,-7.98666 5.2921,-10.88051c2.14943,-3.17781 3.75798,-5.30093 5.88011,-6.6492c1.58175,-1.00494 2.94006,-0.60448 2.94006,0c0,1.81342 -0.49818,3.65181 -1.17602,6.04473c-1.03976,3.67056 -3.16277,6.5477 -4.11608,9.06709c-1.55188,4.10128 -3.15841,7.10059 -4.70409,9.67157c-2.765,4.5991 -2.81888,6.70205 -4.11607,9.67157c-0.53863,1.23303 -0.75841,1.78748 -0.58801,1.20895c0.61437,-2.08595 2.5704,-4.07823 4.11608,-6.6492c2.07374,-3.44932 3.86486,-6.80761 6.46812,-10.8805c3.22895,-5.0518 6.31127,-8.6033 9.40818,-12.08946c2.80381,-3.15622 6.46812,-6.04473 9.99618,-7.85815c2.35204,-1.20895 4.87631,-2.84531 5.2921,-2.41788c0.41578,0.42742 -0.08687,2.38368 -1.17602,5.44025c-1.27914,3.58976 -3.06215,8.99088 -5.88011,13.90287c-3.07534,5.36064 -5.73463,10.37876 -9.40818,15.71629c-3.39619,4.93455 -6.65052,9.5017 -8.23215,11.48499c-2.68825,3.37093 -2.94005,5.44025 -3.52807,6.04472c0,0 0.13184,0.05874 0.58801,-1.20894c0.84115,-2.3375 1.86842,-4.78408 3.52807,-8.46263c1.88418,-4.17621 3.73867,-8.95052 5.8801,-13.2984c2.61598,-5.31137 5.16348,-9.97573 7.64415,-14.50734c2.19617,-4.01192 4.83505,-5.87789 7.05613,-7.85815c0.62821,-0.5601 1.12839,0.06468 0.58801,2.41789c-0.30208,1.31548 -2.97143,5.42114 -4.70409,8.46262c-2.39569,4.20535 -4.95589,8.71853 -7.64414,12.08946c-3.69046,4.62765 -7.24852,8.91103 -9.99618,12.69393c-2.5369,3.4927 -5.11132,6.15717 -5.88011,7.25367c-0.48623,0.69349 -0.58801,0 0,-1.20894c1.17603,-2.41789 3.4069,-6.09759 4.70409,-9.0671c1.61589,-3.69906 4.01886,-7.90986 5.88011,-11.48499c2.23693,-4.29676 4.93023,-8.67384 7.05613,-12.08945c2.02922,-3.26027 4.79361,-5.58208 5.88011,-6.04473c0.76828,-0.32714 -0.32278,0.49205 -1.17602,3.62684c-0.96377,3.54087 -3.26413,8.5915 -5.88011,13.90287c-2.14144,4.34788 -6.08291,8.91753 -9.40817,13.90287c-3.13704,4.70317 -5.83246,9.1025 -8.82017,13.2984c-1.73657,2.43881 -2.17177,4.55844 -2.94005,4.23131c-0.54326,-0.23132 1.42058,-1.06453 2.35204,-3.02237c1.6339,-3.43427 3.76691,-6.51804 5.88011,-10.8805c1.99617,-4.12086 4.27134,-8.73476 7.64414,-13.90287c2.09764,-3.21419 5.50791,-8.25597 8.23215,-11.48498c1.92633,-2.28325 3.27364,-2.98965 2.94005,-1.20895c-0.59882,3.19644 -3.27719,7.05362 -5.88011,12.08945c-2.71739,5.25729 -6.12713,10.70009 -9.40817,15.7163c-3.82631,5.84985 -7.83488,10.69312 -11.76022,15.11182c-3.09691,3.48615 -6.09592,7.04703 -8.82017,10.27603c-1.92633,2.28325 -3.34781,4.55844 -4.11608,4.2313c-0.54325,-0.23132 0.27957,-2.33442 1.17602,-6.04472c0.86217,-3.56844 1.21215,-7.24854 1.76403,-11.48499c0.62925,-4.8303 0.58801,-8.46261 0.58801,-12.08944c0,-2.4179 0.09419,-4.82799 0,-4.23131c-0.29785,1.88683 -1.17602,6.04472 -2.35204,9.67157c-1.17602,3.62683 -2.35204,7.25367 -4.11608,12.08946c-1.76403,4.83578 -3.48427,8.23329 -4.70408,12.08944c-1.10608,3.49665 -1.8509,6.01052 -2.94006,9.0671c-0.63958,1.79489 -1.00379,2.84531 -0.58801,2.41789c0.41579,-0.42742 1.27479,-2.36974 2.35204,-4.83578c1.29719,-2.96951 1.90029,-7.20995 2.94005,-10.8805c1.35568,-4.78583 2.59595,-7.80228 3.52807,-12.69393c0.79928,-4.19455 0.06994,-6.7794 1.17602,-10.27603c0.4066,-1.2854 0.7317,-1.80437 0.58801,-0.60448c-0.29623,2.47363 -0.62996,5.54412 -1.76403,10.27603c-1.20184,5.01466 -3.47704,10.90051 -5.2921,15.7163c-1.144,3.03532 -4.01197,7.64953 -5.2921,11.48497c-0.97305,2.91539 -1.17602,5.44027 -1.17602,6.6492c0,0.60447 0.26978,0.18531 0.58801,-0.60447c0.67507,-1.67539 1.17603,-3.62684 2.94006,-7.25367c1.76404,-3.62684 2.56934,-6.18697 4.70408,-11.48499c2.01266,-4.99501 3.61699,-8.64094 5.88011,-14.50735c1.93883,-5.02579 3.46435,-9.21854 4.70409,-13.2984c0.78408,-2.58032 2.35204,-4.23131 1.76403,-4.23131c-1.17602,0 0,3.02236 0,5.44026c0,4.83578 -0.58801,9.67155 -1.76403,13.90287c-1.17602,4.23131 -2.81889,9.72442 -4.11608,12.69393c-2.15452,4.93209 -3.88501,9.77778 -5.2921,12.69393c-1.52357,3.15756 -2.35204,6.04474 -2.35204,7.25367c0,0.60448 0.26978,0.18531 0.58801,-0.60447c0.22502,-0.55846 0.55225,-2.43286 1.76403,-5.44025c1.71372,-4.25311 2.87028,-7.87338 3.52807,-10.88052c1.06378,-4.86316 2.35204,-10.27603 3.52807,-15.11182c1.17602,-4.83578 1.29309,-8.50164 1.76403,-11.48497c0.29785,-1.88683 0.73351,-2.41171 0.58801,-0.60447c-0.29501,3.66433 -1.44638,8.36732 -2.94006,13.2984c-1.44162,4.75922 -2.56934,9.8138 -4.70409,15.11182c-2.01266,4.99501 -4.70409,9.0671 -5.88011,12.69393c-1.17603,3.62684 -2.35204,6.6492 -2.35204,7.85814c0,1.81342 0.15083,1.33166 0.58801,0.60448c0.97758,-1.62602 2.04361,-4.14786 2.94006,-7.85816c0.86217,-3.56844 3.31964,-8.34774 4.70408,-13.90287c1.63158,-6.54677 3.27364,-11.97439 4.70409,-16.92524c1.54355,-5.34229 2.64504,-9.63406 2.94006,-13.2984c0.1455,-1.80724 0.80354,-2.40431 0.58801,-0.60448c-0.29622,2.47363 -0.4053,7.8823 -1.17602,13.2984c-0.95158,6.68703 -2.26319,10.90866 -4.11608,16.92523c-1.68368,5.46711 -4.01295,10.31312 -5.2921,13.90288c-1.08916,3.05657 -1.76403,5.44025 -1.76403,7.25367c0,0.60447 -0.18838,1.19334 0,0c0.29785,-1.88683 1.69426,-4.85102 2.35204,-7.85814c1.06378,-4.86317 2.16027,-9.11468 3.52807,-14.50735c1.54891,-6.1067 3.15518,-10.81853 4.70409,-16.92524c1.3678,-5.39267 2.55501,-11.59195 3.52807,-14.50734c0.85342,-2.55696 1.64814,-3.01648 1.76403,-1.81342c0.29545,3.06722 0.58801,7.25368 0.58801,10.88051c0,3.02236 0.37586,6.77924 -1.17602,10.8805c-0.95331,2.51939 -1.76404,4.23131 -1.76404,6.04474l0,0.60447" id="svg_27" fill="none"/>
  <path d="m66.40852,74.09171c0,0 0.06495,0.67023 0.34483,1.72414c0.45129,1.69938 1.03449,3.10345 2.06897,5.17241c1.03448,2.06897 1.3793,3.79311 2.41379,5.86208c0.68966,1.37931 1.52489,3.51405 2.06897,4.82758c0.76945,1.85762 1.62555,2.83162 2.41379,3.79311c0.61834,0.75426 0.87902,1.36385 2.06897,1.72414c0.66006,0.19985 1.72414,0.34483 2.4138,0.34483c1.72414,0 3.44827,-0.68965 5.17241,-1.72414c1.72414,-1.03448 4.13793,-2.4138 6.2069,-4.13793c2.06896,-1.72414 4.39078,-4.21819 6.20689,-6.20689c1.64424,-1.8005 3.17644,-3.69453 4.13793,-4.48277c0.75426,-0.61834 1.03448,-0.68965 1.03448,-0.34483c0,2.06897 -1.03448,7.58621 -1.37931,8.96552c-0.68966,2.75862 -0.97723,5.88174 -2.06897,8.96552c-0.98325,2.7773 -1.93283,5.58025 -3.10345,7.93104c-1.23924,2.4886 -2.36137,4.85506 -3.10345,6.20689c-0.96755,1.76257 -1.91075,2.65291 -1.72414,3.10345c0.26392,0.63715 2.14965,-0.16998 3.7931,-1.03448c2.20068,-1.15763 5.53385,-3.08224 8.6207,-5.51723c3.46709,-2.73493 6.89655,-5.51724 10.34483,-8.6207c3.44827,-3.10345 6.46307,-5.96349 10,-8.96552c3.36673,-2.85757 5.97736,-5.55051 8.62068,-6.89655c1.94342,-0.98963 3.65028,-1.52214 4.13794,-1.03448c0.24384,0.24384 0.04889,0.69139 0,1.37931c-0.17285,2.43217 -0.88431,5.57037 -2.41379,9.65517c-1.57191,4.19813 -3.32326,8.69431 -6.20691,13.44828c-2.97642,4.90691 -5.672,8.77352 -9.31034,13.10345c-3.61118,4.29762 -7.68549,8.22775 -11.37931,11.03448c-3.57981,2.72009 -6.87064,4.23611 -9.31034,4.82759c-1.70879,0.41428 -3.07504,0.55624 -3.44828,-0.34483c-0.26392,-0.63716 -0.15459,-2.76247 0,-5.86208c0.17263,-3.46117 1.05859,-7.92739 1.72414,-12.41379c0.7156,-4.82381 1.71622,-10.69115 2.75862,-16.20689c1.3689,-7.24335 2.1412,-13.09185 3.10345,-19.31035c0.74573,-4.81924 1.03448,-8.96552 1.03448,-12.4138c0,-1.37931 -0.65614,-2.4911 -1.37931,-2.75862c-1.33345,-0.49327 -3.16447,-0.57063 -4.82758,0c-2.91729,1.00095 -5.40517,3.30289 -8.96552,5.17242c-3.68893,1.93705 -6.52385,3.51712 -12.4138,5.86207c-4.46225,1.77654 -9.29862,2.58603 -13.10345,2.75862c-4.13368,0.18751 -7.07124,-0.30872 -9.65517,-1.72414c-1.51213,-0.82832 -3.60122,-2.20022 -4.13793,-4.13793c-0.46023,-1.66158 -0.46705,-3.45262 -0.34483,-5.17242c0.17285,-2.43217 1.23438,-4.53685 2.06897,-6.55172c0.88521,-2.1371 1.42032,-3.86738 2.06897,-5.86207c0.47689,-1.46653 1.03448,-3.10345 1.03448,-4.13793c0,-0.68966 0.31107,-1.31877 -0.34483,-1.72414c-0.29333,-0.18129 -0.68966,-0.34483 -1.03448,-0.34483c-1.03448,0 -2.11449,0.26045 -3.44828,1.03448c-1.07534,0.62404 -2.71741,1.12136 -4.82758,2.06897c-1.69399,0.76071 -3.4299,1.55129 -5.86207,1.72414c-2.06376,0.14667 -3.84845,0.47535 -5.86207,0c-0.75043,-0.17715 -1.03448,-0.34483 -1.03448,-0.68966c0,-0.34483 -0.36819,-1.08453 0,-2.4138c0.53671,-1.93771 1.72413,-3.44827 2.75862,-5.17241c1.03448,-1.72414 2.07604,-3.78431 3.79311,-5.17241c0.59962,-0.48475 1.78828,-0.92847 2.41379,-1.37931c0.39561,-0.28514 0.4291,0.00517 0.34483,0.68966c-0.17372,1.41111 -1.18375,3.38015 -2.06897,5.51724c-0.83459,2.01487 -2.23947,4.73784 -3.44828,7.24138c-0.80742,1.67223 -2.10764,4.10976 -3.10345,5.51724c-0.71809,1.01495 -0.98566,2.45651 -0.68965,2.06897c1.6875,-2.20935 2.59995,-3.88036 3.7931,-5.86207c1.53004,-2.54126 3.10345,-4.82759 4.82759,-7.5862c1.72414,-2.75862 3.31739,-4.63379 5.17241,-6.89655c1.57647,-1.92298 3.17644,-3.00487 4.13793,-3.79311c0.37712,-0.30917 0.31192,0.68184 0,2.06897c-0.38575,1.71545 -1.6768,4.51044 -3.10345,6.89655c-1.66939,2.7921 -3.60981,5.64759 -5.86207,8.62069c-1.91971,2.53411 -3.60015,3.99647 -5.51724,6.2069c-1.12966,1.30251 -2.59094,1.66336 -2.41379,2.41379c0.07922,0.3356 0.38402,-0.30774 1.03448,-1.03448c1.47255,-1.64522 2.4813,-3.75576 3.79311,-6.2069c1.45532,-2.71929 3.14009,-5.37685 4.82759,-7.5862c1.77604,-2.32528 3.59871,-3.25506 5.86207,-5.17242c1.11628,-0.94563 2.75862,-1.72414 2.75862,-1.72414c0,0.34483 -0.57628,1.10779 -1.72414,2.75862c-1.26049,1.81282 -3.42348,4.15885 -5.17241,6.20689c-2.38039,2.78749 -4.27357,5.02567 -6.89655,7.58621c-1.92717,1.8813 -4.06206,3.44005 -5.51724,4.82759c-0.89981,0.85798 -1.03448,1.03448 -0.68966,0.68966c0.34483,-0.34483 1.17711,-1.25011 2.41379,-2.75863c1.57647,-1.92299 2.55851,-3.3358 4.13793,-5.51724c1.90778,-2.63496 3.61114,-5.33528 5.17241,-6.89655c1.56128,-1.56128 2.75862,-2.75862 3.44828,-3.44828c0,0 0.07247,0.02705 -0.34483,1.03448c-0.59014,1.42473 -1.63574,3.1652 -3.10345,5.17241c-1.30326,1.78232 -3.01146,3.87336 -4.82759,5.86207c-1.64424,1.80049 -2.60627,2.93768 -3.7931,3.7931c-0.62551,0.45085 -0.82161,0.66341 -0.68966,0.34483c0.37324,-0.90108 1.63976,-2.11448 2.41379,-3.44828c1.24809,-2.15067 2.75862,-4.13793 4.13793,-6.2069c1.37931,-2.06897 2.45294,-4.11045 4.13793,-6.55172c1.41249,-2.04646 1.96325,-3.60649 2.4138,-3.79311c0.31858,-0.13196 -0.14341,0.26244 -0.68966,1.37931c-0.95818,1.95912 -2.51619,4.06079 -3.79311,5.86207c-1.88134,2.6539 -3.31849,4.61993 -5.86207,6.89655c-1.64523,1.47255 -3.63764,3.77765 -4.82759,4.13793c-0.33003,0.09993 -0.09993,-0.35962 0,-0.68966c0.36029,-1.18995 2.26328,-3.00086 3.10345,-4.82759c0.91129,-1.98136 2.04337,-4.84239 3.44828,-7.24138c1.01609,-1.73504 2.4138,-3.44828 3.44828,-4.48276c0.34483,-0.34483 0.44476,0.0148 0.34483,0.34483c-0.36029,1.18995 -1.72414,2.75862 -2.75862,4.82759c-1.03448,2.06897 -2.10811,3.42079 -3.79311,5.86207c-1.41249,2.04646 -2.31861,3.52508 -3.44827,4.82759c-0.63903,0.73681 -1.02526,1.11371 -0.68966,1.03448c0.75043,-0.17715 1.37931,-1.03448 2.41379,-2.06897c1.72414,-1.72414 3.10345,-3.10345 4.82759,-4.82759c1.72414,-1.72414 3.46202,-3.42206 4.13793,-3.7931c1.76257,-0.96755 2.41379,-1.37931 2.41379,-1.03448c0,1.03448 -0.9134,3.17096 -1.72414,4.48276c-0.90643,1.46664 -2.21159,3.31908 -3.44828,4.82759c-1.57647,1.92298 -2.19577,3.64273 -3.44828,4.82759c-0.9032,0.85442 -1.56593,1.2736 -1.37931,1.72414c0.13196,0.31858 0.43426,-0.61056 1.03448,-1.37931c1.2374,-1.58483 2.06124,-3.60151 3.10345,-5.51724c1.05516,-1.93954 2.74145,-4.15181 4.13793,-5.86207c1.70336,-2.0861 1.36477,-4.86878 3.44828,-4.13793c0.32539,0.11414 -0.4904,1.44508 -1.03448,2.75862c-0.76945,1.85762 -2.71825,3.81875 -4.48276,6.55172c-1.34874,2.08902 -3.77594,4.84146 -5.17242,6.55173c-1.70336,2.0861 -3.57807,3.13114 -4.13793,4.48276c-0.26392,0.63715 -0.09992,1.01968 0,0.68965c0.36028,-1.18995 1.72414,-2.06896 2.75862,-3.7931c1.03448,-1.72414 2.3882,-4.15274 3.79311,-6.55173c1.01609,-1.73505 2.63206,-4.55104 3.7931,-6.55173c1.24809,-2.15067 3.24788,-3.53675 3.79311,-5.17241c0.10904,-0.32713 -0.11084,0.62379 -0.68966,1.72414c-0.8645,1.64344 -1.37931,4.13793 -2.75862,6.89655c-1.03448,2.06897 -2.4138,4.48276 -3.79311,7.24138c-1.03448,2.06896 -2.56841,4.07092 -3.10345,5.51724c-0.49327,1.33345 -0.34483,2.06896 -0.34483,1.72414c0,-0.34483 0.57883,-1.76794 1.03448,-2.75862c0.84017,-1.82672 1.78205,-3.42081 2.41379,-4.82759c0.76071,-1.69398 1.37931,-3.10345 2.4138,-4.48276l0.68966,-1.03448l0.34483,-0.34483" id="svg_28" stroke="#c30000" fill="none"/>
  <ellipse stroke="#c30000" ry="92.4138" rx="129.65518" id="svg_29" cy="116.5055" cx="136.06369" fill="#c30000"/>
  <ellipse ry="11.72414" rx="4.13793" id="svg_30" cy="113.74688" cx="132.27059" stroke="#c30000" fill="#c30000"/>
  <ellipse stroke="#c30000" ry="88.96553" rx="47.93104" id="svg_31" cy="105.47102" cx="78.47748" fill="#c30000"/>
  <ellipse stroke="#c30000" ry="88.96553" rx="50.17242" id="svg_32" cy="102.02274" cx="214.16713" fill="#c30000"/>
  <ellipse stroke="#c30000" ry="92.93105" rx="87.75863" id="svg_33" cy="163.9193" cx="147.27058" fill="#c30000"/>
 </g>
</svg>